HIERARCHY
ROOT Hips
{
	OFFSET 0.000000 0.000000 0.000000
	CHANNELS 6 Xposition Yposition Zposition Zrotation Yrotation Xrotation 
	JOINT LHipJoint
	{
		OFFSET 0.000000 0.000000 0.000000
		CHANNELS 3 Zrotation Yrotation Xrotation
		JOINT LeftUpLeg
		{
			OFFSET 1.363060 -1.794630 0.839290
			CHANNELS 3 Zrotation Yrotation Xrotation
			JOINT LeftLeg
			{
				OFFSET 2.448110 -6.726130 0.000000
				CHANNELS 3 Zrotation Yrotation Xrotation
				JOINT LeftFoot
				{
					OFFSET 2.562200 -7.039590 0.000000
					CHANNELS 3 Zrotation Yrotation Xrotation
					JOINT LeftToeBase
					{
						OFFSET 0.157640 -0.433110 2.322550
						CHANNELS 3 Zrotation Yrotation Xrotation
						End Site
						{
							OFFSET 0.000000 0.000000 0.000000
						}
					}
				}
			}
		}
	}
	JOINT RHipJoint
	{
		OFFSET 0.000000 0.000000 0.000000
		CHANNELS 3 Zrotation Yrotation Xrotation
		JOINT RightUpLeg
		{
			OFFSET -1.305520 -1.794630 0.839290
			CHANNELS 3 Zrotation Yrotation Xrotation
			JOINT RightLeg
			{
				OFFSET -2.542530 -6.985550 0.000000
				CHANNELS 3 Zrotation Yrotation Xrotation
				JOINT RightFoot
				{
					OFFSET -2.568260 -7.056230 0.000000
					CHANNELS 3 Zrotation Yrotation Xrotation
					JOINT RightToeBase
					{
						OFFSET -0.164730 -0.452590 2.363150
						CHANNELS 3 Zrotation Yrotation Xrotation
						End Site
						{
							OFFSET 0.000000 0.000000 0.000000
						}
					}
				}
			}
		}
	}
	JOINT LowerBack
	{
		OFFSET 0.000000 0.000000 0.000000
		CHANNELS 3 Zrotation Yrotation Xrotation
		JOINT Spine
		{
			OFFSET 0.028270 2.035590 -0.193380
			CHANNELS 3 Zrotation Yrotation Xrotation
			JOINT Spine1
			{
				OFFSET 0.056720 2.048850 -0.042750
				CHANNELS 3 Zrotation Yrotation Xrotation
				JOINT Neck
				{
					OFFSET 0.000000 0.000000 0.000000
					CHANNELS 3 Zrotation Yrotation Xrotation
					JOINT Neck1
					{
						OFFSET -0.054170 1.746240 0.172020
						CHANNELS 3 Zrotation Yrotation Xrotation
						JOINT Head
						{
							OFFSET 0.104070 1.761360 -0.123970
							CHANNELS 3 Zrotation Yrotation Xrotation
							End Site
							{
								OFFSET 0.000000 0.000000 0.000000
							}
						}
					}
				}
				JOINT LeftShoulder
				{
					OFFSET 0.000000 0.000000 0.000000
					CHANNELS 3 Zrotation Yrotation Xrotation
					JOINT LeftArm
					{
						OFFSET 3.362410 1.200890 -0.311210
						CHANNELS 3 Zrotation Yrotation Xrotation
						JOINT LeftForeArm
						{
							OFFSET 4.983000 -0.000000 -0.000000
							CHANNELS 3 Zrotation Yrotation Xrotation
							JOINT LeftHand
							{
								OFFSET 3.483560 -0.000000 -0.000000
								CHANNELS 3 Zrotation Yrotation Xrotation
								JOINT LeftFingerBase
								{
									OFFSET 0.000000 0.000000 0.000000
									CHANNELS 3 Zrotation Yrotation Xrotation
									JOINT LeftHandIndex1
									{
										OFFSET 0.715260 -0.000000 -0.000000
										CHANNELS 3 Zrotation Yrotation Xrotation
										End Site
										{
											OFFSET 0.000000 0.000000 0.000000
										}
									}
								}
								JOINT LThumb
								{
									OFFSET 0.000000 0.000000 0.000000
									CHANNELS 3 Zrotation Yrotation Xrotation
									End Site
									{
										OFFSET 0.000000 0.000000 0.000000
									}
								}
							}
						}
					}
				}
				JOINT RightShoulder
				{
					OFFSET 0.000000 0.000000 0.000000
					CHANNELS 3 Zrotation Yrotation Xrotation
					JOINT RightArm
					{
						OFFSET -3.136600 1.374050 -0.404650
						CHANNELS 3 Zrotation Yrotation Xrotation
						JOINT RightForeArm
						{
							OFFSET -5.241900 -0.000000 -0.000000
							CHANNELS 3 Zrotation Yrotation Xrotation
							JOINT RightHand
							{
								OFFSET -3.444170 -0.000000 -0.000000
								CHANNELS 3 Zrotation Yrotation Xrotation
								JOINT RightFingerBase
								{
									OFFSET 0.000000 0.000000 0.000000
									CHANNELS 3 Zrotation Yrotation Xrotation
									JOINT RightHandIndex1
									{
										OFFSET -0.622530 -0.000000 -0.000000
										CHANNELS 3 Zrotation Yrotation Xrotation
										End Site
										{
											OFFSET 0.000000 0.000000 0.000000
										}
									}
								}
								JOINT RThumb
								{
									OFFSET 0.000000 0.000000 0.000000
									CHANNELS 3 Zrotation Yrotation Xrotation
									End Site
									{
										OFFSET 0.000000 0.000000 0.000000
									}
								}
							}
						}
					}
				}
			}
		}
	}
}
MOTION
Frames: 9
Frame Time: 0.008333
-40.990959 17.538238 -10.337526 5.023359 74.823856 11.319385 4.138221 0.029844 -2.119694 -23.230867 6.387573 -35.015731 7.683613 17.914991 54.925423 0.482780 0.712943 15.226952 0.071600 -1.726600 -4.750600 -5.364767 -0.513007 -1.883209 15.055880 0.028329 -19.579188 -8.454525 -17.308469 55.884740 0.906519 -6.930190 -5.641385 -1.306200 7.239900 -20.428200 -1.271260 2.092534 26.046170 -0.040461 3.365523 -1.260395 -2.285383 1.751621 3.691514 -1.352365 11.367334 -9.705917 -9.113128 18.588237 -2.735032 -2.122300 9.938100 -2.119400 -0.652643 0.886198 1.531401 -65.762152 -2.285999 0.199209 56.109339 -54.660013 -36.429997 0.048329 -0.603162 -27.263161 6.160149 24.994756 2.766800 -7.125000 0.000000 0.000000 -24.340400 53.960300 -5.617300 -1.187910 1.333669 1.400065 75.532086 10.916927 11.427751 -29.322385 41.323979 -14.296367 0.699898 -0.782923 -16.682096 -41.872573 29.925002 -25.104500 7.125000 0.000000 0.000000 -6.005300 8.885500 -6.895900 
-40.673293 17.641224 -10.391740 4.610993 74.430382 11.041479 4.161254 0.023660 -2.167520 -22.591613 6.993899 -34.879424 7.812006 17.939832 55.279385 0.827529 0.115327 18.882954 0.000800 0.185600 0.509900 -5.299218 -0.542398 -1.900198 15.103289 -0.626252 -19.630180 -8.085278 -17.081041 54.712586 0.808551 -6.393409 -5.829521 -0.640600 5.120400 -14.252300 -0.829858 2.189806 25.227912 -0.134379 3.520952 -1.176061 -3.189869 1.950677 4.464780 -0.728676 11.745644 -9.975196 -9.255705 19.127773 -2.645892 -2.253700 10.165500 -2.002900 -0.722921 1.124771 1.535822 -65.434492 -1.606201 -1.152851 55.297732 -54.528007 -35.934253 0.131860 -0.601831 -30.822411 3.312093 25.864365 1.564000 -7.125000 0.000000 0.000000 -27.679400 54.235400 -6.671400 -1.225738 1.144943 1.419538 76.352471 10.211994 11.182139 -29.716945 41.781867 -14.612309 0.736179 -0.750668 -18.062052 -42.023105 29.559131 -24.989600 7.125000 0.000000 0.000000 -6.202400 8.524900 -7.092000 
-40.356825 17.742359 -10.446063 4.338444 73.987075 10.756452 4.170556 0.059202 -2.140962 -21.912508 7.526715 -34.731760 8.001664 18.006724 55.885410 1.199557 -1.044883 22.041085 0.042400 1.329100 3.654800 -5.242508 -0.564983 -1.879580 15.111956 -1.344477 -19.671525 -7.807678 -16.866413 53.749934 0.880322 -6.683186 -5.291217 -0.521900 4.629900 -12.855900 -0.850388 2.392590 25.022035 -0.148208 3.755100 -1.214207 -3.235927 2.060251 4.324442 -0.587625 12.133677 -9.925738 -9.306178 19.586361 -2.448381 -2.263300 10.357800 -1.822700 -0.672193 1.114928 1.507728 -65.741780 -0.118936 -2.422498 54.479627 -54.314933 -35.405453 0.182857 -0.570553 -34.825197 0.541966 27.421621 0.337300 -7.125000 0.000000 0.000000 -31.423600 55.053700 -8.366600 -1.232159 1.127085 1.383742 76.574822 8.902177 11.269752 -30.188861 42.180640 -14.936132 0.774834 -0.711692 -19.724067 -42.110707 29.211587 -24.833600 7.125000 0.000000 0.000000 -6.361200 8.154400 -7.240900 
-40.046345 17.804411 -10.503761 4.350771 73.713693 10.955498 4.198696 0.034727 -2.158550 -21.216125 6.295338 -34.274603 8.223208 18.156516 56.600715 1.262888 -1.125999 22.692784 0.050000 1.443500 3.970100 -5.190563 -0.592373 -1.879249 14.988462 -2.058857 -19.868999 -7.549356 -16.672089 52.818269 1.005306 -7.236325 -4.423070 -0.499400 4.530700 -12.574700 -0.600274 2.416106 24.358080 -0.221516 3.760332 -1.193870 -3.951785 2.158710 4.734072 -0.079210 12.385141 -10.147859 -9.313271 19.904710 -2.382371 -2.307700 10.486600 -1.719300 -0.715789 1.254768 1.486454 -65.675690 0.813207 -3.932234 53.145386 -53.968355 -34.410770 0.241866 -0.523882 -38.642606 -2.577504 28.379585 -1.180700 -7.125000 0.000000 0.000000 -35.115200 55.240100 -9.702400 -1.289681 1.016358 1.378075 77.271399 8.110136 11.512559 -30.610706 42.619971 -15.243015 0.790122 -0.693932 -21.293434 -41.903323 29.361445 -24.770000 7.125000 0.000000 0.000000 -6.204700 8.238900 -7.068600 
-39.733251 17.853509 -10.559282 4.194871 73.335769 10.849467 4.178748 0.103235 -2.031592 -20.538410 5.274562 -33.862143 8.488516 18.308644 57.342112 0.996038 0.050757 20.827090 0.010000 -0.645300 -1.773400 -5.137876 -0.599486 -1.796700 14.869264 -2.688594 -19.837168 -7.283498 -16.404487 51.802892 1.136633 -7.811116 -3.336437 -0.486200 4.471100 -12.406000 -1.147296 2.689709 24.684138 -0.119063 4.019403 -1.418546 -2.852027 2.107176 3.312625 -0.590008 12.708885 -9.496033 -9.174777 20.162507 -2.079791 -2.169600 10.593900 -1.556100 -0.473658 0.910071 1.412671 -67.414601 3.394475 -5.242569 52.103142 -53.577396 -33.556669 0.210728 -0.461619 -41.275954 -6.012931 28.146059 -2.819800 -7.125000 0.000000 0.000000 -38.008200 54.339100 -9.793700 -1.266763 1.242591 1.277528 76.498169 5.750834 11.959849 -31.314137 43.031125 -15.686708 0.814434 -0.648894 -23.061874 -41.533935 29.372461 -24.483200 7.125000 0.000000 0.000000 -6.014800 8.070200 -6.834900 
-39.415150 17.916759 -10.608597 3.810099 72.986010 10.675508 4.231865 0.085882 -2.166785 -19.932719 5.657539 -33.710148 8.772642 18.415943 57.926710 0.424028 3.367461 17.447365 0.263300 -3.301400 -9.119000 -5.062978 -0.633344 -1.860267 14.731914 -3.155996 -19.523779 -6.960262 -16.157603 50.631335 1.247137 -8.327920 -2.184606 -0.484700 4.464300 -12.386600 -0.641276 2.667052 23.165481 -0.251583 4.064926 -1.176341 -3.997034 2.299002 5.118351 0.145752 12.617127 -9.769227 -9.362858 20.310981 -2.471096 -2.506400 10.660400 -1.883600 -0.632101 1.431820 1.502035 -67.053929 3.602708 -6.272705 51.825128 -53.701043 -33.477915 0.271770 -0.397992 -45.795366 -5.246563 30.852392 -2.683500 -7.125000 0.000000 0.000000 -39.683100 56.615200 -12.672200 -1.281998 0.867608 1.411178 77.434520 6.388669 11.978791 -31.253377 43.233476 -15.697048 0.840706 -0.621088 -23.883255 -41.486071 28.742783 -24.045300 7.125000 0.000000 0.000000 -6.171500 7.331000 -6.946600 
-39.089646 18.003088 -10.650837 3.459520 72.539221 10.117002 4.185705 0.224483 -2.024644 -19.227348 7.705766 -33.986650 8.977320 18.381915 58.108284 -0.356893 7.654311 13.618283 0.307300 -3.564200 -9.853800 -4.982296 -0.694529 -1.705197 14.584645 -3.560750 -18.751644 -6.623449 -15.775353 49.310835 1.370183 -8.920566 -1.017176 -0.519800 4.620700 -12.829700 -1.229228 3.008079 24.016710 -0.170515 4.347270 -1.486504 -3.142385 2.279141 3.028557 -0.051727 12.881193 -8.834956 -9.104458 20.355980 -2.051815 -2.347600 10.649500 -1.643300 -0.364107 0.955448 1.403083 -68.486313 7.540357 -6.550049 52.944423 -54.028059 -34.456197 0.242110 -0.332139 -49.903709 -6.996623 32.207046 -3.731200 -7.125000 0.000000 0.000000 -42.507900 57.237800 -14.491800 -1.300274 1.224860 1.278014 76.992709 3.559659 12.504483 -31.867241 43.548307 -16.059649 0.844722 -0.599266 -24.735526 -41.179542 28.485015 -23.639800 7.125000 0.000000 0.000000 -6.073200 6.902100 -6.795300 
-38.772416 18.054690 -10.688177 2.592490 72.153036 9.164543 4.193501 0.293477 -2.023990 -18.217109 8.775934 -33.961635 9.011112 18.306817 57.887488 -1.202508 11.545593 9.433289 0.385000 -3.984700 -11.033600 -4.897839 -0.737113 -1.657877 14.592919 -3.873584 -17.964398 -6.315625 -15.451274 48.088603 1.518499 -9.726589 0.312830 -0.597700 4.949400 -13.764300 -1.305698 3.199369 23.778904 -0.172878 4.577536 -1.507580 -3.089516 2.375057 2.934712 0.222802 12.855556 -8.679351 -9.022792 20.259615 -1.917468 -2.408500 10.570800 -1.564900 -0.263124 0.953225 1.391353 -69.236900 9.508346 -7.217524 53.027047 -54.151915 -34.587417 0.223210 -0.256813 -53.568689 -9.962556 32.884816 -5.456900 -7.125000 0.000000 0.000000 -45.815500 57.053200 -15.749400 -1.270844 1.201780 1.267345 77.113833 2.600981 12.790730 -31.964035 43.677903 -16.112977 0.826903 -0.599333 -24.840272 -40.576252 28.898902 -23.441500 7.125000 0.000000 0.000000 -5.626700 7.116900 -6.309300 
-38.462479 18.073632 -10.722143 2.082735 71.632502 8.521704 4.174832 0.366371 -1.969443 -17.151480 9.562695 -33.566906 8.818638 18.106067 57.124253 -1.664336 13.211377 6.500138 0.746600 -5.519300 -15.395800 -4.824748 -0.787456 -1.578063 14.419889 -3.917937 -17.186020 -6.069694 -15.165039 47.052733 1.596377 -10.257362 2.085336 -0.750800 5.534500 -15.439500 -1.637977 3.437821 23.913278 -0.181183 4.772324 -1.619225 -3.003617 2.442812 2.195159 0.457342 12.837352 -8.248898 -8.782782 20.089523 -1.754595 -2.373600 10.464300 -1.507600 -0.147267 0.801302 1.346544 -70.081700 11.996887 -8.072400 53.051095 -54.201313 -34.632690 0.187903 -0.191554 -57.022139 -13.304828 33.064915 -7.372600 -7.125000 0.000000 0.000000 -48.880400 56.417000 -16.377300 -1.293975 1.313179 1.227214 77.344321 1.229365 13.274885 -32.247332 43.885353 -16.270328 0.803713 -0.608328 -24.874964 -40.111131 29.195428 -23.270100 7.125000 0.000000 0.000000 -5.280000 7.265400 -5.929100 
